PathFileType	4	(X/Y/Z)	C:/Users/beibeiliu/ov580/test_trc\sequence.13_training_dense_right.trc
DataRate	CameraRate	NumFrames	NumMarkers	Units	OrigDataRate	OrigDataStartFrame	OrigNumFrames
120	120	12	19	mm	120	1	53
Frame#	Time	ThumbCMC			ThumbMCP			ThumbIP			ThumbTip			IndexMCP			IndexPIP			IndexTip			MiddleMCP			MiddlePIP			MiddleTip			RingMCP			RingPIP			RingTip			PinkyMCP			PinkyPIP			PinkyTip			BackHand1			BackHand2			BackHand3	
		X0	Y0	Z0	X1	Y1	Z1	X2	Y2	Z2	X3	Y3	Z3	X4	Y4	Z4	X5	Y5	Z5	X6	Y6	Z6	X7	Y7	Z7	X8	Y8	Z8	X9	Y9	Z9	X10	Y10	Z10	X11	Y11	Z11	X12	Y12	Z12	X13	Y13	Z13	X14	Y14	Z14	X15	Y15	Z15	X16	Y16	Z16	X17	Y17	Z17	X18	Y18	Z18	
0	0	90.1189	-24.1109	137.299	68.6921	-56.3256	128.978	64.1532	-80.789	113.089	71.7382	-100.599	99.5169	105.169	-34.3741	66.2225	96.1678	-48.1493	40.9246	89.2266	-58.2496	22.6775	128.691	-53.6151	67.279	121.619	-70.1918	44.2564	113.515	-96.0139	27.7417	130.583	-73.9861	78.9597	111.545	-98.4857	73.632	86.7271	-109.73	93.3343	146.516	-82.2931	96.4669	140.776	-106.726	85.7445	126.595	-128.627	80.6353	146.968	-37.2612	117.846	149.399	-20.7544	144.989	124.777	-9.95817	123.903	
1	0.00833333	90.834	-10.1144	135.185	67.9955	-33.2955	131.992	54.9814	-56.2194	113.374	51.9403	-75.9072	101.663	102.851	-23.8007	68.4804	91.0636	-32.1257	42.7025	82.9683	-47.5705	23.0512	117.769	-44.0942	68.3198	105.757	-62.6277	42.8203	92.0371	-83.7722	27.4245	115.361	-66.4013	77.7023	96.7883	-88.6408	76.6407	66.8597	-88.3914	95.7495	129.727	-78.3627	97.2454	118.552	-100.656	84.8063	100.092	-116.293	74.8025	143.348	-36.6097	118.591	150.697	-22.3306	145.337	129.658	-4.7276	121.588	
2	0.0166667	102.292	10.1729	138.582	71.8372	-8.05598	128.374	51.6609	-22.775	111.553	47.0271	-42.3195	98.5206	108.198	-11.1951	67.264	95.8204	-13.4003	45.0572	84.2159	-26.8278	24.8328	113.942	-36.8141	63.1914	98.6854	-48.21	42.4873	77.9523	-65.2025	26.2136	107.437	-56.7476	78.5591	81.137	-65.5425	73.7513	53.9133	-60.3997	93.7085	114.951	-71.1685	94.7341	99.65	-86.2079	86.3075	84.554	-98.4309	73.2713	142.024	-36.8778	116.982	154.325	-28.1709	142.52	141.094	-2.40803	122.419	
3	0.025	120.699	19.4796	132.436	86.7988	16.4105	124.898	64.4227	4.44316	104.441	50.9463	-10.9391	91.729	124.02	-2.24874	65.738	108.954	-3.47493	38.4877	95.4059	-12.7179	20.2755	120.444	-34.4303	64.4248	101.429	-41.1104	40.4132	78.6896	-47.7724	24.9149	105.303	-45.8329	73.9295	73.9346	-45.5125	69.5099	52.9767	-28.9459	85.5936	106.659	-61.6554	93.9994	90.0074	-69.6392	84.4079	71.0704	-81.8472	66.6763	144.331	-37.1105	115.101	154.957	-33.0191	145.447	152.301	-4.12784	117.772	
4	0.0333333	142.419	20.4428	126.559	109.735	25.9024	116.832	87.0179	23.7076	96.1493	70.019	10.7109	81.5337	142.904	-6.85755	59.2876	134.259	-2.28738	36.3633	116.948	-6.4235	15.9237	133.315	-29.8331	63.2289	112.78	-33.4123	35.7672	93.0885	-32.8824	17.9173	113.656	-38.4431	74.2408	84.418	-26.761	60.1583	64.6939	-4.42229	72.1733	105.649	-54.3085	93.5831	86.6526	-58.8079	75.015	69.5493	-65.2359	59.3913	146.507	-41.656	118.132	155.515	-43.5252	146.028	164.353	-17.9514	122.414	
5	0.0416667	160.006	12.9075	123.538	131.014	23.3573	110.403	112.509	26.4133	91.5167	95.2709	18.9623	73.6381	164.58	-14.5385	59.7455	153.935	-14.3739	33.4098	145.209	-7.92096	8.56205	145.429	-38.638	62.9646	130.082	-39.6491	36.1563	113.571	-32.0818	14.0382	124.534	-39.4966	67.6721	100.632	-27.6214	53.5547	89.6271	0.86233	57.7572	109.619	-53.8176	87.5641	97.8666	-53.9233	71.7877	78.0903	-61.5912	51.1098	146.59	-50.2622	117.53	155.963	-47.1954	144.633	172.775	-29.149	120.695	
6	0.05	174.109	2.67	125.037	150.693	20.6524	105.22	133.24	23.5246	79.7345	117.311	17.0751	63.0306	183.511	-29.7323	62.9444	181.359	-25.809	34.5283	168.528	-26.0359	11.6562	163.882	-49.1044	63.3768	151.22	-49.0024	35.927	135.083	-40.6298	11.0703	137.787	-50.4441	67.9858	120.382	-34.4163	48.8634	111.055	-4.7891	49.3791	124.762	-56.1711	87.2318	108.037	-59.2943	67.138	95.0301	-64.4315	44.5288	157.983	-55.1571	122.332	161.989	-50.6135	149.879	183.96	-37.3946	125.921	
7	0.0583333	187.82	-2.71925	130.423	166.413	10.4848	101.85	153.294	11.2055	75.6869	139.365	1.56702	54.8048	206.833	-44.4288	70.9088	203.568	-44.7784	40.7826	198.49	-43.3364	14.916	181.587	-64.2916	69.3242	174.271	-64.824	39.9061	158.039	-55.2709	11.3774	156.528	-62.8681	70.8608	143.001	-48.1094	47.7349	139.544	-18.8852	42.9981	141.851	-66.2083	90.102	132.268	-69.9275	68.7986	119.603	-77.8267	44.4375	170.068	-63.8156	124.317	168.733	-55.0794	157.521	197.348	-43.7832	136.752	
8	0.0666667	197.468	-10.6027	129.016	179.353	1.96007	100.639	170.018	-2.44899	75.4799	159.693	-12.7857	53.5713	227.465	-53.1931	80.4408	232.108	-55.31	53.0188	226.997	-56.6774	29.1539	205.774	-74.1154	80.2138	201.416	-76.8498	46.3159	192.653	-68.6673	22.8833	184.439	-73.0924	80.4127	173.748	-64.3407	52.3822	162.429	-32.8297	41.8791	163.159	-78.9095	92.2082	158.558	-82.5997	67.986	147.353	-88.8287	46.5874	182.721	-71.0832	133.084	177.37	-59.9634	160.026	206.498	-46.69	145.593	
9	0.075	202.848	-2.98861	134.98	184.063	2.08729	101.008	178.162	-2.53849	75.0856	171.781	-18.82	52.6968	242.015	-46.181	86.4731	249.887	-44.1695	62.2784	245.716	-46.8433	31.9939	229.449	-67.6139	82.474	224.77	-71.4969	50.7488	215.491	-63.913	25.6508	204.03	-73.0445	83.8868	195.536	-66.2624	55.1104	180.145	-39.7536	42.7467	182.308	-82.8797	93.9384	180.405	-86.3351	69.6306	177.172	-90.1926	44.6949	200.111	-63.4705	137.181	189.759	-58.7304	161.077	216.409	-42.6277	150.851	
10	0.0833333	198.801	0.0251645	134.716	180.874	7.46118	100.465	174.003	2.46464	73.8161	171.602	-18.0739	54.8172	244.28	-27.6937	90.8586	252.572	-26.625	59.327	248.789	-32.9291	35.443	234.766	-54.6829	83.354	233.458	-59.9953	54.4462	220.077	-51.8485	26.1425	213.226	-66.1023	80.4834	202.995	-60.1374	54.1965	182.882	-37.2878	43.0778	193.227	-78.5155	92.8894	192.606	-80.6891	68.4329	187.755	-82.0862	39.3985	206.917	-57.1009	138.938	196.697	-53.6954	165.46	217.296	-31.3682	150.548	
11	0.0916667	184.548	7.66027	139.883	168.611	8.87101	107.521	163.015	5.22856	74.8672	162.709	-14.4266	55.5302	235.97	-9.4142	87.2529	242.185	-9.60258	58.7458	239.608	-10.598	31.459	231.332	-35.894	84.2028	231.393	-41.658	50.5026	216.89	-34.1621	23.4511	213.446	-53.9686	79.0943	199.902	-50.5434	52.6451	174.463	-28.6183	45.3536	199.373	-67.6744	87.1464	193.562	-73.0378	62.0741	184.65	-72.2085	37.6282	207.744	-52.2323	132.064	196.565	-48.8393	161.696	214.361	-19.3654	145.64	
